<?xml version="1.0" standalone="no"?>
<!DOCTYPE svg PUBLIC "-//W3C//DTD SVG 20010904//EN"
 "http://www.w3.org/TR/2001/REC-SVG-20010904/DTD/svg10.dtd">
<svg version="1.0" xmlns="http://www.w3.org/2000/svg"
 width="290.000000pt" height="174.000000pt" viewBox="0 0 290.000000 174.000000"
 preserveAspectRatio="xMidYMid meet">
<metadata>
Created by potrace 1.15, written by Peter Selinger 2001-2017
</metadata>
<g transform="translate(0.000000,174.000000) scale(0.100000,-0.100000)"
fill="#000000" stroke="none">
<path d="M412 1719 c-75 -9 -144 -31 -189 -59 -29 -18 -33 -25 -33 -65 0 -29
5 -48 13 -51 8 -3 49 7 93 22 62 22 98 28 169 28 148 1 192 -40 202 -186 l6
-81 -34 7 c-175 36 -289 28 -380 -27 -77 -46 -113 -108 -118 -204 -4 -94 15
-148 73 -201 51 -47 96 -62 188 -62 90 0 168 30 230 88 26 25 48 40 48 35 0
-17 60 -101 77 -107 20 -8 113 50 113 70 0 8 -10 34 -22 57 -21 39 -23 59 -28
292 -5 250 -5 250 -33 308 -55 111 -191 160 -375 136z m225 -488 c21 -6 29
-14 31 -36 16 -134 -85 -235 -235 -235 -46 0 -58 4 -89 33 -31 28 -37 42 -41
84 -9 86 30 142 114 163 39 9 170 4 220 -9z"/>
<path d="M2373 1720 c-176 -37 -271 -195 -202 -337 36 -74 86 -107 242 -159
85 -28 150 -56 164 -70 64 -64 28 -158 -71 -185 -63 -17 -199 -5 -280 25 -37
14 -72 23 -77 20 -5 -3 -9 -27 -9 -54 0 -59 13 -71 115 -102 99 -31 247 -30
329 2 112 43 176 128 176 233 0 137 -56 191 -266 255 -111 35 -162 64 -182
105 -28 58 19 129 95 143 57 11 183 -2 239 -24 60 -24 74 -17 74 35 0 45 -34
77 -100 97 -66 20 -192 28 -247 16z"/>
<path d="M920 1678 c0 -22 211 -728 235 -785 l14 -33 75 0 c62 0 77 3 84 18 5
9 42 155 83 325 40 169 76 304 79 300 4 -5 40 -145 80 -313 40 -168 77 -311
82 -317 7 -8 37 -13 84 -13 60 0 75 3 82 18 20 38 252 804 247 812 -4 6 -38
10 -76 10 -63 0 -70 -2 -79 -22 -5 -13 -46 -165 -90 -338 -72 -277 -90 -342
-90 -317 0 24 -154 654 -162 665 -7 7 -36 12 -78 12 -42 0 -71 -5 -78 -12 -6
-7 -42 -150 -81 -318 -40 -168 -75 -314 -80 -324 -5 -14 -30 72 -85 290 -42
170 -81 321 -87 337 -11 26 -14 27 -85 27 -69 0 -74 -1 -74 -22z"/>
</g>
</svg>
